# xmcd CD database file
#
# Track frame offsets:
#	150
#	14675
#	31601
#	44150
#	55647
#	71634
#	84971
#	108327
#	128598
#	140377
#	149082
#	168801
#	185139
#	200176
#	214864
#	222965
#	235003
#	247270
#	258257
#
# Disc length: 3636 seconds
#
# Revision: 0
# Processed by: cddbd v1.5.2PL0 Copyright (c) Steve Scherf et al.
# Submitted via: CDex 1.51
#
DISCID=200e3213
DTITLE=Carl Norac Jeanne Balibar - Swing café
DYEAR=2009
DGENRE=Enfants
TTITLE0=Portrait de l'artiste en cigale
TTITLE1=Extrait de son journal
TTITLE2=Au bord des rêves
TTITLE3=Adeus meu irmão !
TTITLE4=En voyage
TTITLE5=Zazou blues
TTITLE6=Danse entre les gouttes
TTITLE7=Shopping swing loopings
TTITLE8=En tunnel-saxo
TTITLE9=En cachot-banjo
TTITLE10=Au Swing Café
TTITLE11=Swing song
TTITLE12=Hot and Bothered
TTITLE13=Creole love call
TTITLE14=Tiger rag
TTITLE15=Chinatown, my Chinatown
TTITLE16=Shakin' the African
TTITLE17=Jivin' the Vibes
TTITLE18=Minnie the moocher
EXTD=YEAR: 2009
EXTT0=
EXTT1=
EXTT2=
EXTT3=
EXTT4=
EXTT5=
EXTT6=
EXTT7=
EXTT8=
EXTT9=
EXTT10=
EXTT11=
EXTT12=
EXTT13=
EXTT14=
EXTT15=
EXTT16=
EXTT17=
EXTT18=
PLAYORDER=
